<svg width="707" height="388" viewBox="0 0 707 388" fill="none" xmlns="http://www.w3.org/2000/svg">
<g opacity="0.5">
<path d="M470.39 237.351L505.6 201.944C506.17 201.372 507.03 201.198 507.78 201.502L561.76 223.471M525.6 316L469.07 295.331C468.28 295.042 467.76 294.292 467.76 293.452V239.255C467.76 237.952 468.98 236.997 470.25 237.315L470.39 237.351L525.6 316ZM525.6 316V258.5V316ZM525.6 316L561.25 276.254C561.58 275.887 561.76 275.411 561.76 274.918V223.471L525.6 316ZM525.6 258.5L470.39 237.351L525.6 258.5ZM525.6 258.5L561.76 223.471L525.6 258.5Z" stroke="#EF7E22" stroke-width="5" stroke-linecap="round"/>
<path d="M625.48 308.323L671.76 300.474M598.76 282.158V328.508C598.76 328.99 598.93 329.456 599.25 329.82L625.48 360L598.76 282.158ZM598.76 282.158L625.48 308.323L598.76 282.158ZM598.76 282.158L645.89 273.21C646.57 273.08 647.28 273.317 647.74 273.836L671.76 300.474L598.76 282.158ZM625.48 360V308.323V360ZM625.48 360L670.13 351.467C671.08 351.287 671.76 350.463 671.76 349.503V300.474L625.48 360Z" stroke="#EF7E22" stroke-width="5" stroke-linecap="round"/>
<path d="M643.93 203.613L682.76 176.679M605.76 182.591V223.978L643.93 245L605.76 182.591ZM605.76 182.591L643.93 203.613L605.76 182.591ZM605.76 182.591L643.93 155L682.76 176.679L605.76 182.591ZM643.93 245V203.613V245ZM643.93 245L682.76 218.723V176.679L643.93 245Z" stroke="#EF7E22" stroke-width="5"/>
<path d="M644.26 183.429L659.76 192.018M644.26 157V183.429V157ZM644.26 183.429L628.76 194L644.26 183.429Z" stroke="#EF7E22" stroke-width="5" stroke-linecap="round"/>
<path d="M664.52 122L642.76 155.393L681 177L702.76 143.607L664.52 122Z" stroke="#EF7E22" stroke-width="5"/>
<path d="M605.76 117L613.76 135" stroke="#EF7E22" stroke-width="5" stroke-linecap="round"/>
<path d="M577.76 127L603.76 149" stroke="#EF7E22" stroke-width="5" stroke-linecap="round"/>
<path d="M576.76 156L592.76 165" stroke="#EF7E22" stroke-width="5" stroke-linecap="round"/>
<path d="M118.134 36.9727L117.759 37.8998C122.789 40.0252 133.476 49.6303 134.722 70.9529C136.288 97.7309 130.959 120.892 110.127 135.908C108.668 136.959 104.767 138.851 99.4581 140.597C94.1643 142.338 87.5192 143.918 80.593 144.37C66.7338 145.277 51.8753 141.677 44.3107 125.988C32.1082 100.681 41.9284 77.0201 48.3426 68.3797C51.4516 64.2088 57.2809 58.0759 64.6351 53.2734C71.9925 48.469 80.8207 45.0314 89.9513 46.1488L90.4003 46.2037L90.4998 45.7624C92.7795 35.6484 103.335 13.0592 127.239 3.78899C151.131 -5.47616 165.35 6.63573 167.065 17.6151C167.634 21.2595 167.816 26.7418 166.536 31.3509C165.897 33.6525 164.902 35.7029 163.442 37.203C162.063 38.6196 160.25 39.5664 157.862 39.7591L154.846 30.9593L154.595 30.2278L154.031 30.7566C148.993 35.4787 134.727 43.3639 118.134 36.9727Z" fill="#EF7E22" stroke="#EF7E22"/>
<path d="M169 61.5C169 65.1052 168.121 68.3113 166.762 70.5764C165.386 72.8693 163.662 74 162 74C160.338 74 158.613 72.8693 157.238 70.5764C155.879 68.3113 155 65.1052 155 61.5C155 57.8948 155.879 54.6887 157.238 52.4236C158.613 50.1307 160.338 49 162 49C163.662 49 165.386 50.1307 166.762 52.4236C168.121 54.6887 169 57.8948 169 61.5Z" stroke="#EF7E22" stroke-width="5"/>
<path d="M163.5 62C163.5 62.4546 163.361 62.8468 163.161 63.1142C162.96 63.3814 162.722 63.5 162.5 63.5C162.278 63.5 162.04 63.3814 161.839 63.1142C161.639 62.8468 161.5 62.4546 161.5 62C161.5 61.5454 161.639 61.1532 161.839 60.8858C162.04 60.6186 162.278 60.5 162.5 60.5C162.722 60.5 162.96 60.6186 163.161 60.8858C163.361 61.1532 163.5 61.5454 163.5 62Z" fill="#223B41" stroke="#EF7E22"/>
<path d="M135 69L155 64" stroke="#EF7E22" stroke-width="5" stroke-linecap="round"/>
<path d="M122 142V125.936M160.233 39C162.409 42.1498 168.446 48.8415 174.22 52.2295C180.126 55.6941 181.37 61.0487 178.572 65.4585L174.22 72.3883C177.329 77.2183 182.24 89.3344 177.018 99.1621L160.233 39ZM155.57 139.165C155.156 135.28 156.752 126.062 166.449 120.266L155.57 139.165Z" stroke="#EF7E22" stroke-width="5" stroke-linecap="round"/>
<path d="M146.5 87C146.5 87.2761 146.276 87.5 146 87.5C145.724 87.5 145.5 87.2761 145.5 87C145.5 86.7239 145.724 86.5 146 86.5C146.276 86.5 146.5 86.7239 146.5 87Z" fill="#223B41" stroke="#EF7E22"/>
<path d="M144.5 98.5C144.5 99.0523 144.052 99.5 143.5 99.5C142.948 99.5 142.5 99.0523 142.5 98.5C142.5 97.9477 142.948 97.5 143.5 97.5C144.052 97.5 144.5 97.9477 144.5 98.5Z" fill="#223B41" stroke="#EF7E22"/>
<path d="M158 104C158.71 105.7 161.104 109.28 165 110" stroke="#EF7E22" stroke-width="5" stroke-linecap="round"/>
<path d="M154.5 95C154.5 95.057 154.465 95.1697 154.283 95.2911C154.105 95.4101 153.829 95.5 153.5 95.5C153.171 95.5 152.895 95.4101 152.717 95.2911C152.535 95.1697 152.5 95.057 152.5 95C152.5 94.943 152.535 94.8303 152.717 94.7089C152.895 94.5899 153.171 94.5 153.5 94.5C153.829 94.5 154.105 94.5899 154.283 94.7089C154.465 94.8303 154.5 94.943 154.5 95Z" fill="#223B41" stroke="#EF7E22"/>
<path d="M183.822 110.404C179.108 110.09 169.239 108.327 167.479 103.796C165.719 99.2642 171.356 98.7609 174.394 99.0755C178.27 99.7048 187.782 102.663 194.823 109.46C203.623 117.957 223.424 139.985 232.852 159.811C240.395 175.671 253.177 196.63 258.625 205.126C269.415 221.91 286.597 256.735 241.339 257.995C229.71 258.318 212.738 244.274 195.137 233.448M178.479 135.265L182.879 134.006C184.661 133.272 188.034 132.999 187.28 137.782C186.526 142.566 173.22 143.132 172.508 137.782C172.247 135.824 172.3 132.987 173.152 130.23L178.479 135.265ZM182.879 121.733C177.143 122.617 174.354 126.344 173.152 130.23L182.879 121.733ZM173.152 130.23C170.607 129.139 167.534 126.474 169.325 122.677L173.152 130.23ZM175.022 117.013C171.861 119.097 170.118 120.998 169.325 122.677L175.022 117.013ZM169.325 122.677C166.51 121.104 163.959 116.258 176.279 109.46L169.325 122.677Z" stroke="#EF7E22" stroke-width="5" stroke-linecap="round"/>
<path d="M72.9912 312.32C73.1993 320.488 69.8083 337.398 54.5807 339.689C39.3529 341.981 20.3598 342.129 12.7668 341.917C7.87806 342.342 -0.588719 341.344 4.65362 333.961C9.89597 326.577 18.2795 325.368 21.8159 325.686C31.2812 326.323 50.1497 323.077 49.8997 305" stroke="#EF7E22" stroke-width="5" stroke-linecap="round"/>
<path d="M368 316C371.306 315.463 379.775 311.743 383.359 303.746C387.839 293.749 397.119 289.556 400.319 293.426C402.878 296.522 401.812 298.586 401.599 299.231" stroke="#EF7E22" stroke-width="5" stroke-linecap="round"/>
<path d="M253.269 319.784C239.137 313.397 229.062 304.176 226.799 291.135C229.007 293.931 233.35 297.444 240.423 300.68C249.248 304.718 262.374 308.351 281.057 309.633C298.566 310.834 312.058 309.827 323.403 308.98C327.177 308.698 330.714 308.434 334.082 308.275C347.56 307.639 358.38 308.673 371.163 316.9C372.789 318.037 376.773 321.66 379.497 326.94C379.498 326.941 379.498 326.942 379.499 326.943C379.494 326.955 379.481 326.986 379.439 327.036C379.321 327.176 379.069 327.363 378.628 327.58C377.76 328.007 376.353 328.457 374.452 328.903C370.663 329.792 365.034 330.638 358.143 331.286C344.367 332.582 325.606 333.081 306.552 331.565C287.491 330.049 268.176 326.52 253.269 319.784ZM379.5 326.939L379.942 326.711L379.5 326.939Z" fill="#EF7E22" stroke="#EF7E22"/>
<path d="M151.493 379.782C129.308 376.31 114.622 368.119 105.726 359.273C97.8066 351.399 94.4964 343.034 94.5002 336.999C97.5983 343.994 103.717 349.485 111.584 353.519C120.212 357.943 130.984 360.638 142.319 361.651C164.966 363.674 190.019 358.992 204.862 347.754C215.82 339.457 221.426 327.23 224.125 315.619C226.344 306.067 226.605 296.898 226.243 290.597C231.931 304.104 242.476 308.836 256.669 315.204C258.07 315.833 259.507 316.478 260.978 317.148C264.778 318.881 271.312 320.082 279.355 320.888C287.419 321.695 297.063 322.109 307.128 322.237C327.258 322.492 349.101 321.604 363.405 320.42C370.398 319.84 377.056 322.073 380.949 327.805C384.851 333.55 386.072 342.945 381.866 356.893C380.33 361.987 376.506 366.335 370.801 370.02C365.095 373.707 357.542 376.707 348.623 379.113C330.784 383.924 307.578 386.333 282.996 387.16C233.839 388.813 179.302 384.135 151.493 379.782Z" fill="#EF7E22" stroke="#EF7E22"/>
<path d="M90.3021 297.548C87.5523 315.957 92.0916 353.969 132.247 358.738C172.403 363.508 196.872 353.613 204.088 348.069C212.349 341.061 228.244 319.388 225.734 288.761L212.244 245.457M187.147 135C190.075 141.276 195.994 158.096 196.245 175.166L174.285 148.493C170.416 144.1 159.917 136.632 148.874 141.903L119.071 145.041C95.6471 179.768 48.1717 253.93 45.6619 272.757C43.1522 291.585 48.3808 301.941 51.3088 304.765C56.8511 310.099 71.1357 317.568 83.9351 304.765C86.4796 302.22 88.5786 299.806 90.3021 297.548L187.147 135ZM97.1114 277.778C95.8563 283.427 97.2484 288.445 90.3021 297.548L97.1114 277.778Z" stroke="#EF7E22" stroke-width="5" stroke-linecap="round"/>
<path d="M389.787 318.704C388.04 328.249 384.898 331.577 382.61 332.519C386.355 350.417 379.177 364.546 372 368C377.201 367.372 389.537 365.048 397.276 360.778C405.016 356.508 408.407 348.323 409.135 344.765C410.695 336.078 413.629 316.129 412.88 305.83C412.131 295.531 405.494 297.562 402.269 299.865C398.837 302.167 391.535 309.158 389.787 318.704Z" stroke="#EF7E22" stroke-width="5"/>
</g>
</svg>
